<svg version="1.2" xmlns="http://www.w3.org/2000/svg" viewBox="0 0 3400 1000" width="3400" height="1000"><defs><clipPath clipPathUnits="userSpaceOnUse" id="cp1"><path d="m3362.04 3301.99l297.88 84.28-40.85 269.77-241.7 131.08-191.5-132.35-20-240.43"/></clipPath><linearGradient id="P" gradientUnits="userSpaceOnUse"/><radialGradient id="g1" cx="0" cy="0" r="1" href="#P" gradientTransform="matrix(8221.15,0,0,8221.15,3305.78,4532.5)"><stop offset=".08" stop-color="#fff" stop-opacity="1"/><stop offset=".1" stop-color="#fafafa" stop-opacity=".98"/><stop offset=".53" stop-color="#757575" stop-opacity=".46"/><stop offset=".83" stop-color="#212121" stop-opacity=".13"/><stop offset=".97" stop-opacity="0"/></radialGradient></defs><style>.a{fill:#e51763}.b{fill:#0c93c1}.c{opacity:.8;fill:#e51763}.d{opacity:.8;fill:#0c93c1}.e{opacity:.5;mix-blend-mode:multiply;fill:#868686}.f{opacity:.5;mix-blend-mode:multiply;fill:#b1b1b1}.g{opacity:.5;mix-blend-mode:multiply;fill:#d9d9d9}.h{opacity:.1;mix-blend-mode:screen;fill:#f5f5f5}.i{opacity:.5;mix-blend-mode:multiply;fill:#575756}.j{opacity:.5;mix-blend-mode:multiply;fill:#1d1d1b}.k{fill:none;stroke:#273f43;stroke-linecap:round;stroke-linejoin:round;stroke-width:2.5}.l{fill:none;stroke:#273f43;stroke-linecap:round;stroke-linejoin:round;stroke-width:5}.m{fill:none;stroke:#273f43;stroke-linecap:round;stroke-linejoin:round;stroke-width:10}.n{opacity:.2;mix-blend-mode:overlay;fill:url(#g1)}.o{fill:#e9e9e9}</style><path class="a" d="m605.2 474.2l-40.8 269.8-241.8 131-191.5-132.3-20-240.4 91.5-52.4 104.7-60 297.9 84.3z"/><path class="b" d="m458.4 192.1l-151.1 197.8-119.5-117.4-25.6-125.1 149.7 38.2 106.9-178 39.6 184.5z"/><path class="c" d="m605.2 474.2l-40.8 269.8-241.8 131-191.4-132.3-20-240.4 91.4-52.4 104.7-60 297.9 84.3z"/><path class="d" d="m458.4 192.1l-151.1 197.8-119.5-117.4-25.6-125.1 149.7 38.2 106.9-178 39.6 184.5z"/><path class="e" d="m307.3 389.9l-119.6-117.4-25.5-125.1 113.6 98.3 31.5 144.2z"/><path class="e" d="m605.2 474.2l-40.8 269.8-241.8 131 80.4-114 202.2-286.8z"/><path class="f" d="m605.2 474.2l-202.2 286.8 24.3-238.3 177.9-48.5z"/><path class="f" d="m418.8 7.6l-111.5 382.3-31.5-144.2 36.1-60.1 106.9-178z"/><path class="g" d="m458.4 192.1l-151.1 197.8 111.5-382.3 39.6 184.5z"/><path class="h" d="m605.2 474.2l-177.9 48.5-120-132.8 297.9 84.3z"/><path class="e" d="m427.3 522.7l-24.3 238.3-291.8-258.7 316.1 20.4z"/><path class="f" d="m427.3 522.7l-316.1-20.4 91.4-52.4 104.7-60 120 132.8z"/><path class="i" d="m403 761l-271.8-18.3-20-240.4 291.8 258.7z"/><path class="j" d="m403 761l-80.4 114-191.4-132.3 271.8 18.3z"/><path class="h" d="m311.9 185.6l-36.1 60.1-113.6-98.3 149.7 38.2z"/><path class="h" d="m307.3 389.9l-196.1 112.4 20 240.4 176.1-352.8"/><path class="k" d="m418.8 7.6l-111.5 382.3-174.1 352.8"/><path class="l" d="m187.8 272.5l119.5 117.4"/><path class="l" d="m322.6 875l241.8-131 40.8-269.8"/><path class="l" d="m403 761l-80.4 114"/><path class="k" d="m605.2 474.2l-202.2 286.8"/><path class="l" d="m111.2 502.3l316.1 20.4"/><path class="l" d="m403 761l-291.8-258.7"/><path class="l" d="m427.3 522.7l-24.3 238.3"/><path class="l" d="m131.2 742.7l271.8 18.3"/><path class="l" d="m275.8 245.7l31.5 144.2"/><path class="l" d="m418.8 7.6l-143 238.1"/><path class="l" d="m458.4 192.1l-39.6-184.5"/><path class="l" d="m427.3 522.7l-120-132.8"/><path class="l" d="m605.2 474.2l-177.9 48.5"/><path class="l" d="m307.3 389.9l297.9 84.3"/><path class="l" d="m111.2 502.3l196.1-112.4"/><path class="l" d="m131.2 742.7l-20-240.4"/><path class="l" d="m322.6 875l-191.4-132.3"/><path class="l" d="m162.2 147.4l25.6 125.1"/><path class="k" d="m275.8 245.7l-113.6-98.3"/><path class="l" d="m162.2 147.4l149.7 38.2"/><path class="l" d="m307.3 389.9l151.1-197.8"/><path class="m" d="m162.2 147.4l25.6 125.1 119.5 117.4"/><path class="m" d="m418.8 7.6l-106.9 178-149.7-38.2"/><path class="m" d="m458.4 192.1l-39.6-184.5"/><path class="m" d="m307.3 389.9l151.1-197.8"/><path class="m" d="m605.2 474.2l-297.9-84.3"/><path class="m" d="m131.2 742.7l191.4 132.3 241.8-131 40.8-269.8"/><path class="m" d="m131.2 742.7l-20-240.4"/><path class="m" d="m307.3 389.9l-196.1 112.4"/><g clip-path="url(#cp1)"><path class="n" d="m3289.5 3732l1255.7-1644.9-329-1533.6-926.7 3178.5z"/></g><path class="o" d="m1545.3 301.8l-69.6 463.6h-109.5l-48.1-226-48.1 226h-109.6l-69.5-463.7h78.8l49.3 377.3h7l64.3-306.6h55.7l64.2 306.6h7l49.3-377.3z"/><path fill-rule="evenodd" class="o" d="m1826.3 458.2v150.1h-136.2v91.6l10.5 8.7h46.9l10.5-8.7v-51.6h68.4v77.7l-47 39.4h-110.7l-46.9-39.4v-267.8l48.6-40.5h107.3zm-80 14.4h-44.7l-11.6 9.9v74.2h67.9v-74.2z"/><path fill-rule="evenodd" class="o" d="m2139.3 455.3v270.7l-46.4 39.4h-70.7l-22.6-19.1-12.7 19.1h-52.8v-463.6h69v130.3l19.1-15.6h70.7zm-79.4 17.4h-46.3l-10.4 8.7v219.1l10.4 8.6h46.3l10.5-8.6v-219.1z"/><path class="o" d="m2484.8 344.1v156.4l-33 27.8 33 27.9v166.3l-51 42.9h-144.3l-51-42.9v-97.4h75.4v64.4l13.3 12.1h68.4l13.9-12.1v-117.7l-12.8-11.6h-88.6v-63.7h88.6l12.8-12.2v-108.4l-13.9-12.1h-68.4l-13.3 12.1v59.7h-75.4v-91.5l51-42.4h144.3z"/><path fill-rule="evenodd" class="o" d="m2997.1 344.1v210.9l-51 42.9h-106v167.5h-75.4v-463.7h181.4zm-89.2 19.7h-67.8v171.6h67.8l13.9-11.6v-147.8z"/><path class="o" d="m3105.5 371.3l-0.6-34.2 20.3-18.5h33.6l20.3 18.5-0.6 34.2-20.3 18h-33zm1.8 46.4h69v347.7h-69z"/></svg>